<svg width="21" height="20" viewBox="0 0 21 20" fill="none" xmlns="http://www.w3.org/2000/svg">
<g clip-path="url(#clip0_117_76)">
<path d="M9.95543 6.48775C8.23513 6.48775 6.83122 7.94634 6.83122 9.73367C6.83122 11.521 8.23513 12.9796 9.95543 12.9796C11.6757 12.9796 13.0797 11.521 13.0797 9.73367C13.0797 7.94634 11.6757 6.48775 9.95543 6.48775ZM19.3257 9.73367C19.3257 8.38953 19.3375 7.05755 19.2648 5.71582C19.1921 4.15738 18.85 2.77425 17.7531 1.63465C16.6539 0.492607 15.325 0.139523 13.825 0.064036C12.5312 -0.0114511 11.2492 0.000724297 9.95778 0.000724297C8.66402 0.000724297 7.38199 -0.0114511 6.09059 0.064036C4.5906 0.139523 3.25933 0.495042 2.16246 1.63465C1.06325 2.77669 0.723403 4.15738 0.650747 5.71582C0.57809 7.05998 0.589808 8.39196 0.589808 9.73367C0.589808 11.0754 0.57809 12.4098 0.650747 13.7515C0.723403 15.31 1.06559 16.6931 2.16246 17.8327C3.26168 18.9747 4.5906 19.3278 6.09059 19.4033C7.38434 19.4787 8.66637 19.4665 9.95778 19.4665C11.2515 19.4665 12.5336 19.4787 13.825 19.4033C15.325 19.3278 16.6562 18.9724 17.7531 17.8327C18.8523 16.6907 19.1921 15.31 19.2648 13.7515C19.3398 12.4098 19.3257 11.0778 19.3257 9.73367ZM9.95543 14.728C7.29528 14.728 5.14839 12.4975 5.14839 9.73367C5.14839 6.96987 7.29528 4.73936 9.95543 4.73936C12.6156 4.73936 14.7625 6.96987 14.7625 9.73367C14.7625 12.4975 12.6156 14.728 9.95543 14.728ZM14.9593 5.70122C14.3382 5.70122 13.8367 5.18011 13.8367 4.53482C13.8367 3.88953 14.3382 3.36842 14.9593 3.36842C15.5804 3.36842 16.082 3.88953 16.082 4.53482C16.0822 4.68804 16.0533 4.8398 15.9969 4.9814C15.9406 5.123 15.8579 5.25165 15.7536 5.36002C15.6493 5.46836 15.5255 5.55427 15.3892 5.61282C15.2529 5.67136 15.1068 5.7014 14.9593 5.70122Z" fill="white"/>
</g>
<defs>
<clipPath id="clip0_117_76">
<rect width="21" height="20" fill="white"/>
</clipPath>
</defs>
</svg>
