<svg width="24" height="22" viewBox="0 0 24 22" fill="none" xmlns="http://www.w3.org/2000/svg">
<path d="M12.3967 0C6.27971 0 1.31982 4.92545 1.31982 11C1.31982 17.0745 6.27971 22 12.3967 22C18.5137 22 23.4736 17.0745 23.4736 11C23.4736 4.92545 18.5137 0 12.3967 0ZM17.7201 8.29175C17.7275 8.40714 17.7275 8.52746 17.7275 8.64532C17.7275 12.2498 14.9632 16.4018 9.91185 16.4018C8.35416 16.4018 6.91021 15.9525 5.69372 15.179C5.91626 15.2036 6.12888 15.2134 6.35636 15.2134C7.64208 15.2134 8.82395 14.7813 9.76597 14.0495C8.55938 14.025 7.54566 13.2393 7.1995 12.1589C7.62229 12.2203 8.00306 12.2203 8.43824 12.1098C7.81695 11.9845 7.25852 11.6494 6.85784 11.1615C6.45713 10.6736 6.23888 10.0631 6.24015 9.43349V9.39912C6.60362 9.60291 7.03136 9.72813 7.47888 9.7453C7.10267 9.49632 6.79414 9.159 6.58065 8.76324C6.36715 8.36748 6.25529 7.92554 6.25499 7.47657C6.25499 6.9683 6.38851 6.50425 6.62834 6.10157C7.31793 6.94458 8.17844 7.63406 9.15393 8.12519C10.1294 8.61632 11.1981 8.8981 12.2904 8.95224C11.9022 7.09845 13.2967 5.59821 14.9731 5.59821C15.7643 5.59821 16.4764 5.92724 16.9783 6.45759C17.5989 6.3422 18.1924 6.11138 18.7214 5.80201C18.5163 6.43304 18.086 6.96584 17.5149 7.30224C18.0687 7.2433 18.6029 7.09108 19.0973 6.87746C18.724 7.42254 18.2566 7.90625 17.7201 8.29175Z" fill="white"/>
</svg>
