<svg width="24" height="16" viewBox="0 0 24 16" fill="none" xmlns="http://www.w3.org/2000/svg">
<g clip-path="url(#clip0_117_72)">
<path d="M23.0113 2.33572C22.8852 1.88343 22.638 1.47096 22.2943 1.13961C21.9507 0.808256 21.5226 0.569632 21.0531 0.44762C19.3247 5.29819e-08 12.3967 0 12.3967 0C12.3967 0 5.46873 -1.05964e-07 3.74042 0.445237C3.2707 0.566855 2.84247 0.805346 2.49873 1.13676C2.15502 1.46818 1.90789 1.88085 1.78219 2.33333C1.31982 4 1.31982 7.47619 1.31982 7.47619C1.31982 7.47619 1.31982 10.9524 1.78219 12.6167C2.03686 13.5357 2.78851 14.2595 3.74042 14.5048C5.46873 14.9524 12.3967 14.9524 12.3967 14.9524C12.3967 14.9524 19.3247 14.9524 21.0531 14.5048C22.0074 14.2595 22.7567 13.5357 23.0113 12.6167C23.4736 10.9524 23.4736 7.47619 23.4736 7.47619C23.4736 7.47619 23.4736 4 23.0113 2.33572ZM10.1962 10.6667V4.28571L15.9325 7.45237L10.1962 10.6667Z" fill="white"/>
</g>
<defs>
<clipPath id="clip0_117_72">
<rect width="24" height="16" fill="white"/>
</clipPath>
</defs>
</svg>
